<svg width="100" height="130" viewBox="0 0 100 130" fill="none" xmlns="http://www.w3.org/2000/svg">
<g clip-path="url(#clip0_211_2424)">
<mask id="mask0_211_2424" style="mask-type:luminance" maskUnits="userSpaceOnUse" x="0" y="-10" width="151" height="150">
<path d="M150.5 140L150.5 -10L0.5 -10L0.499993 140L150.5 140Z" fill="white"/>
</mask>
<g mask="url(#mask0_211_2424)">
<path fill-rule="evenodd" clip-rule="evenodd" d="M113.75 -10L113.75 10.625L113.75 11L113.754 11C113.954 19.7324 121.095 26.75 129.875 26.75L150.5 26.75L150.5 31.25L129.5 31.25C120.801 31.25 113.75 38.3015 113.75 47C113.75 55.6985 120.801 62.75 129.5 62.75L150.5 62.75L150.5 67.25L129.5 67.25C120.801 67.25 113.75 74.3015 113.75 83C113.75 91.6985 120.801 98.75 129.5 98.75L150.5 98.75L150.5 104L129.5 104C120.801 104 113.75 111.051 113.75 119.75L113.75 140L109.25 140L109.25 119C109.25 110.301 102.198 103.25 93.5 103.25C84.8015 103.25 77.75 110.301 77.75 119L77.75 140L73.25 140L73.25 119C73.25 110.301 66.1985 103.25 57.5 103.25C48.8015 103.25 41.75 110.301 41.75 119L41.75 140L37.25 140L37.25 119.75C37.25 111.051 30.1985 104 21.5 104L20.75 104L0.499995 104L0.499995 98.75L21.5 98.75C30.1985 98.75 37.25 91.6985 37.25 83C37.25 74.3015 30.1985 67.25 21.5 67.25L0.499997 67.25L0.499997 62.75L21.5 62.75C30.1985 62.75 37.25 55.6985 37.25 47C37.25 38.3015 30.1985 31.25 21.5 31.25L0.499998 31.25L0.499998 26.75L21.125 26.75C29.9052 26.75 37.0468 19.7324 37.2455 11L37.25 11L37.25 10.625L37.25 -10L41.75 -10L41.75 11C41.75 19.6985 48.8015 26.75 57.5 26.75C66.1985 26.75 73.25 19.6985 73.25 11L73.25 -10L77.75 -10L77.75 11C77.75 19.6985 84.8015 26.75 93.5 26.75C102.198 26.75 109.25 19.6985 109.25 11L109.25 -10L113.75 -10ZM77.75 47C77.75 55.6985 84.8015 62.75 93.5 62.75C102.198 62.75 109.25 55.6985 109.25 47C109.25 38.3015 102.198 31.25 93.5 31.25C84.8015 31.25 77.75 38.3015 77.75 47ZM77.75 83C77.75 91.6985 84.8015 98.75 93.5 98.75C102.198 98.75 109.25 91.6985 109.25 83C109.25 74.3015 102.198 67.25 93.5 67.25C84.8015 67.25 77.75 74.3015 77.75 83ZM57.5 62.75C48.8015 62.75 41.75 55.6985 41.75 47C41.75 38.3015 48.8015 31.25 57.5 31.25C66.1985 31.25 73.25 38.3015 73.25 47C73.25 55.6985 66.1985 62.75 57.5 62.75ZM41.75 83C41.75 91.6985 48.8015 98.75 57.5 98.75C66.1985 98.75 73.25 91.6985 73.25 83C73.25 74.3015 66.1985 67.25 57.5 67.25C48.8015 67.25 41.75 74.3015 41.75 83Z" fill="#DEBAFC"/>
</g>
</g>
<defs>
<clipPath id="clip0_211_2424">
<rect width="150" height="150" fill="white" transform="translate(150.5 -10) rotate(90)"/>
</clipPath>
</defs>
</svg>
