<svg width="100" height="130" viewBox="0 0 100 130" fill="none" xmlns="http://www.w3.org/2000/svg">
<g clip-path="url(#clip0_211_2442)">
<mask id="mask0_211_2442" style="mask-type:luminance" maskUnits="userSpaceOnUse" x="0" y="-10" width="151" height="150">
<path d="M0.333496 -10L0.333496 140H150.333V-10H0.333496Z" fill="white"/>
</mask>
<g mask="url(#mask0_211_2442)">
<path fill-rule="evenodd" clip-rule="evenodd" d="M32.7753 120.99L32.7752 140H42.8918V120.99C42.8918 113.572 48.9054 107.558 56.3236 107.558H56.3602H75.3335H94.3055H94.3438C101.761 107.558 107.775 113.572 107.775 120.99V140H117.891V120.99C117.891 113.572 123.906 107.558 131.324 107.558H131.36H150.333V97.442H131.36H131.324C123.906 97.442 117.891 91.4285 117.891 84.0103V65V45.9901C117.891 38.5718 123.906 32.5582 131.324 32.5582L131.36 32.5582H150.333V22.4418H131.36H131.324C123.906 22.4418 117.891 16.4281 117.891 9.00995V-10L107.775 -10V9.00995C107.775 16.4281 101.761 22.4419 94.3438 22.4419L94.307 22.4418H75.3335H56.3601L56.3236 22.4419C48.9054 22.4419 42.8918 16.4282 42.8918 9.00995V-10L32.7752 -10V9.00995C32.7753 16.4282 26.7615 22.4419 19.3434 22.4419L19.3068 22.4418H0.333496L0.333496 32.5582H19.3058L19.3434 32.5582C26.7615 32.5582 32.7753 38.5718 32.7753 45.9901L32.7752 65V84.0103C32.7753 91.4285 26.7615 97.442 19.3434 97.442H19.3068H0.333496L0.333496 107.558H19.3058H19.3434C26.7615 107.558 32.7753 113.572 32.7753 120.99ZM107.775 65V45.9901C107.775 38.5718 101.761 32.5582 94.3438 32.5582L94.3055 32.5582H75.3335H56.3602L56.3236 32.5582C48.9054 32.5582 42.8918 38.5718 42.8918 45.9901V65V84.0103C42.8918 91.4285 48.9054 97.442 56.3236 97.442H56.3601H75.3335H94.307H94.3438C101.761 97.442 107.775 91.4285 107.775 84.0103V65Z" fill="#FA9A82"/>
</g>
</g>
<defs>
<clipPath id="clip0_211_2442">
<rect width="150" height="150" fill="white" transform="translate(0.333496 -10)"/>
</clipPath>
</defs>
</svg>
